<svg xmlns="http://www.w3.org/2000/svg" enable-background="new 0 0 47.5 47.5" viewBox="0 0 47.5 47.5" id="4"><defs><clipPath id="a"><path d="M0 38h38V0H0v38Z" fill="#34a853" class="color000000 svgShape"></path></clipPath></defs><g clip-path="url(#a)" transform="matrix(1.25 0 0 -1.25 0 47.5)" fill="#34a853" class="color000000 svgShape"><path fill="#4285f4" d="M0 0a4 4 0 0 0-4-4h-28a4 4 0 0 0-4 4v28a4 4 0 0 0 4 4h28a4 4 0 0 0 4-4V0Z" transform="translate(37 5)" class="color3b88c3 svgShape"></path><path fill="#ea4335" d="M0 0h-.062l-4.186-8.65H0V0Zm-7.472-12.743c-1.519 0-2.171 1.022-2.171 1.829 0 .682.248 1.055.435 1.364l6.945 12.589c.682 1.24 1.55 1.798 3.162 1.798 1.799 0 3.566-1.148 3.566-3.969V-8.65h.528c1.209 0 2.17-.807 2.17-2.047 0-1.241-.961-2.046-2.17-2.046h-.528v-2.636c0-1.643-.651-2.418-2.232-2.418-1.582 0-2.233.775-2.233 2.418v2.636h-7.472z" transform="translate(19.242 25.611)" class="colorffffff svgShape"></path></g></svg>